<?xml version="1.0" encoding="UTF-8"?>
<svg xmlns="http://www.w3.org/2000/svg" width="1024" height="1536" viewBox="0 0 1024 1536" shape-rendering="geometricPrecision">
  <rect width="100%" height="100%" fill="#ffffff"/>
  <g fill="#000000" stroke="none">
    <path d="M 622.0 387.5 L 396.0 387.5 L 322.0 366.5 L 291.0 359.5 L 289.5 358.0 L 301.5 332.0 L 314.5 315.0 L 328.0 301.5 L 343.0 290.5 L 360.0 281.5 L 387.0 273.5 L 698.0 272.5 L 712.0 275.5 L 720.0 279.5 L 720.5 281.0 L 622.0 387.5 Z"/>
    <path d="M 732.0 667.5 L 616.0 634.5 L 615.5 627.0 L 633.5 397.0 L 734.0 288.5 L 746.5 300.0 L 755.5 313.0 L 759.5 327.0 L 759.5 338.0 L 747.5 474.0 L 733.5 663.0 L 732.0 667.5 Z"/>
    <path d="M 368.0 681.5 L 261.0 651.5 L 259.5 650.0 L 281.5 387.0 L 285.0 372.5 L 390.5 401.0 L 374.5 621.0 L 369.5 671.0 L 370.5 672.0 L 369.5 680.0 L 368.0 681.5 Z"/>
    <path d="M 591.0 754.5 L 384.0 695.5 L 383.5 682.0 L 386.5 658.0 L 391.5 585.0 L 395.0 584.5 L 599.0 643.5 L 599.5 656.0 L 591.0 754.5 Z"/>
    <path d="M 600.0 1132.5 L 582.0 1131.5 L 576.5 1128.0 L 576.5 1124.0 L 588.5 988.0 L 590.5 962.0 L 589.5 960.0 L 592.5 936.0 L 592.5 922.0 L 610.5 704.0 L 613.5 651.0 L 617.0 649.5 L 729.0 681.5 L 731.5 683.0 L 731.5 691.0 L 719.5 825.0 L 713.5 916.0 L 703.5 1024.0 L 704.5 1025.0 L 698.5 1051.0 L 682.5 1081.0 L 672.5 1093.0 L 658.0 1106.5 L 642.0 1117.5 L 626.0 1125.5 L 615.0 1129.5 L 600.0 1132.5 Z"/>
    <path d="M 351.0 916.5 L 238.5 885.0 L 258.0 665.5 L 365.0 695.5 L 368.5 698.0 L 351.0 916.5 Z"/>
    <path d="M 561.0 1132.5 L 315.0 1132.5 L 289.0 1126.5 L 265.0 1113.5 L 247.5 1097.0 L 237.5 1083.0 L 231.5 1071.0 L 226.5 1054.0 L 225.5 1032.0 L 233.5 937.0 L 236.5 916.0 L 236.5 902.0 L 239.0 900.5 L 292.0 916.5 L 346.0 930.5 L 350.5 933.0 L 346.5 970.0 L 344.0 1017.5 L 570.0 1017.5 L 570.5 1027.0 L 564.5 1090.0 L 564.5 1104.0 L 561.0 1132.5 Z"/>
  </g>
</svg>
